<svg width="648" height="338" viewBox="0 0 648 338" fill="none" xmlns="http://www.w3.org/2000/svg">
<path d="M346.299 13.5659L603.5 134.199V257.5H145.5V134.164L346.299 13.5659Z" fill="#5C5C5C" stroke="#5C5C5C"/>
<path d="M171.826 258L576.826 255M171.952 258C101.326 258 126.815 77.8112 247.826 131.938M247.894 132.411C221.894 18.9112 368.894 -5.08872 395.894 89.9112M395.44 90.4711C422.94 8.97107 560.94 41.9711 515.44 159.471M515.406 159.674C613.726 79.372 652.403 255.359 576.616 255.002" stroke="#5C5C5C" stroke-width="62"/>
<path d="M244.299 62.5659L501.5 183.199V306.5H43.5V183.164L244.299 62.5659Z" fill="white" stroke="white"/>
<path d="M69.8256 307L474.826 304M69.9515 307C-0.67437 307 24.8155 126.811 145.826 180.938M145.894 181.411C119.894 67.9112 266.894 43.9113 293.894 138.911M293.44 139.471C320.94 57.9711 458.94 90.9711 413.44 208.471M413.406 208.674C511.726 128.372 550.403 304.359 474.616 304.002" stroke="white" stroke-width="62"/>
</svg>
