<svg width="648" height="546" viewBox="0 0 648 546" fill="none" xmlns="http://www.w3.org/2000/svg">
<path d="M346.299 13.5659L603.5 134.199V257.5H145.5V134.164L346.299 13.5659Z" fill="#5C5C5C" stroke="#5C5C5C"/>
<path d="M171.826 258L576.826 255M171.952 258C101.326 258 126.815 77.8112 247.826 131.938M247.894 132.411C221.894 18.9112 368.894 -5.08872 395.894 89.9112M395.44 90.4711C422.94 8.97107 560.94 41.9711 515.44 159.471M515.406 159.674C613.726 79.372 652.403 255.359 576.616 255.002" stroke="#5C5C5C" stroke-width="62"/>
<path d="M244.299 62.5659L501.5 183.199V306.5H43.5V183.164L244.299 62.5659Z" fill="white" stroke="white"/>
<path d="M69.8256 307L474.826 304M69.9515 307C-0.67437 307 24.8155 126.811 145.826 180.938M145.894 181.411C119.894 67.9112 266.894 43.9113 293.894 138.911M293.44 139.471C320.94 57.9711 458.94 90.9711 413.44 208.471M413.406 208.674C511.726 128.372 550.403 304.359 474.616 304.002" stroke="white" stroke-width="62"/>
<path d="M25.7787 520.339C25.6906 535.026 36.3194 540.279 38.0216 540.751C39.7237 541.223 50.2198 540.094 57.6944 529.186C65.1691 518.277 65.5795 471.581 67.8276 442.865C55.4617 461.422 31.1159 502.811 25.7787 520.339Z" fill="#0085FF"/>
<path d="M113.188 430.193C113.1 444.879 123.729 450.133 125.431 450.604C127.133 451.076 137.629 449.947 145.104 439.039C152.578 428.131 152.989 381.434 155.237 352.718C142.871 371.276 118.525 412.665 113.188 430.193Z" fill="#0085FF"/>
<path d="M329.779 520.339C329.691 535.026 340.319 540.279 342.022 540.751C343.724 541.223 354.22 540.094 361.694 529.186C369.169 518.277 369.579 471.581 371.828 442.865C359.462 461.422 335.116 502.811 329.779 520.339Z" fill="#0085FF"/>
<path d="M267.779 439.339C267.691 454.026 278.319 459.279 280.022 459.751C281.724 460.223 292.22 459.094 299.694 448.186C307.169 437.277 307.579 390.581 309.828 361.865C297.462 380.422 273.116 421.811 267.779 439.339Z" fill="#0085FF"/>
<path d="M420.777 430.342C420.69 445.029 431.319 450.284 433.021 450.756C434.723 451.228 445.219 450.099 452.692 439.191C460.165 428.283 460.571 381.583 462.816 352.866C450.453 371.424 426.112 412.813 420.777 430.342Z" fill="#0085FF"/>
<path d="M176.761 519.776C176.673 534.462 187.302 539.716 189.004 540.187C190.706 540.659 201.202 539.53 208.677 528.622C216.152 517.714 216.562 471.017 218.81 442.301C206.444 460.858 182.098 502.248 176.761 519.776Z" fill="#0085FF"/>
</svg>
