<svg width="555" height="630" viewBox="0 0 555 630" fill="none" xmlns="http://www.w3.org/2000/svg">
<circle cx="355" cy="200" r="200" fill="#FF9900"/>
<path d="M244.299 155.566L501.5 276.199V399.5H43.5V276.164L244.299 155.566Z" fill="white" stroke="white"/>
<path d="M69.8256 400L474.826 397M69.9515 400C-0.67437 400 24.8155 219.811 145.826 273.938M145.894 274.411C119.894 160.911 266.894 136.911 293.894 231.911M293.44 232.471C320.94 150.971 458.94 183.971 413.44 301.471M413.406 301.674C511.726 221.372 550.403 397.359 474.616 397.002" stroke="white" stroke-width="62"/>
<path d="M15.7787 604.339C15.6906 619.026 26.3194 624.279 28.0216 624.751C29.7237 625.223 40.2198 624.094 47.6944 613.186C55.1691 602.277 55.5795 555.581 57.8276 526.865C45.4617 545.422 21.1159 586.811 15.7787 604.339Z" fill="#0085FF"/>
<path d="M103.188 514.193C103.1 528.879 113.729 534.133 115.431 534.604C117.133 535.076 127.629 533.947 135.104 523.039C142.578 512.131 142.989 465.434 145.237 436.718C132.871 455.276 108.525 496.665 103.188 514.193Z" fill="#0085FF"/>
<path d="M319.779 604.339C319.691 619.026 330.319 624.279 332.022 624.751C333.724 625.223 344.22 624.094 351.694 613.186C359.169 602.277 359.579 555.581 361.828 526.865C349.462 545.422 325.116 586.811 319.779 604.339Z" fill="#0085FF"/>
<path d="M257.779 523.339C257.691 538.026 268.319 543.279 270.022 543.751C271.724 544.223 282.22 543.094 289.694 532.186C297.169 521.277 297.579 474.581 299.828 445.865C287.462 464.422 263.116 505.811 257.779 523.339Z" fill="#0085FF"/>
<path d="M410.777 514.342C410.69 529.029 421.319 534.284 423.021 534.756C424.723 535.228 435.219 534.099 442.692 523.191C450.165 512.283 450.571 465.583 452.816 436.866C440.453 455.424 416.112 496.813 410.777 514.342Z" fill="#0085FF"/>
<path d="M166.761 603.776C166.673 618.462 177.302 623.716 179.004 624.187C180.706 624.659 191.202 623.53 198.677 612.622C206.152 601.714 206.562 555.017 208.81 526.301C196.444 544.858 172.098 586.248 166.761 603.776Z" fill="#0085FF"/>
</svg>
